<svg width="83" height="24" viewBox="0 0 83 24" fill="none" xmlns="http://www.w3.org/2000/svg">
<g clip-path="url(#clip0_1_231)">
<g clip-path="url(#clip1_1_231)">
<g clip-path="url(#clip2_1_231)">
<path d="M0.0040973 7.60308C0.0040973 7.59086 0.0040973 7.57865 0.00532066 7.56637C0.0664883 6.92656 0.467748 6.40663 1.13692 6.33201C4.01791 6.0103 1.51983 10.3923 3.45639 11.1006C5.02106 11.6732 5.63639 9.48217 6.31292 8.48143C7.71975 6.40423 10.0221 5.64937 12.4578 6.33812C14.0127 6.77732 15.0795 8.12666 15.5578 9.62405C15.6459 9.90054 16.0227 9.93359 16.1548 9.67543L16.1585 9.66812C17.4809 7.09417 19.5728 5.73626 22.5492 6.21212C25.4009 6.66725 26.4383 9.11394 26.4909 11.7502V20.3504C26.4909 21.827 25.292 23.0247 23.8154 23.0247C22.3388 23.0247 21.1412 21.827 21.1412 20.3504V12.9088C21.1412 12.9002 21.1412 12.8904 21.1412 12.8818C20.8659 8.87661 15.9921 9.63872 15.9187 13.1816V20.3516C15.9199 21.8282 14.7234 23.0259 13.2456 23.0259C11.769 23.0259 10.5714 21.8282 10.5714 20.3516V13.1632C10.5714 13.1547 10.5714 13.1461 10.5714 13.1375C10.3194 9.24239 5.55075 9.83328 5.34892 13.299C5.34892 13.3052 5.34892 13.3113 5.34892 13.3186C5.34892 13.5388 5.34892 17.5551 5.34892 20.3516C5.34892 21.8282 4.15248 23.0247 2.67468 23.0247C1.19809 23.0247 0.000427246 21.827 0.000427246 20.3504V7.60308H0.0040973Z" fill="white"/>
<path d="M63.6163 0C64.891 0 65.9235 1.03251 65.9246 2.30724C65.8559 4.28907 65.5101 5.91245 64.0139 7.29851C63.3015 7.95791 62.3083 8.43376 62.0235 9.44427C61.5937 10.9698 62.8308 12.2164 64.3565 11.7429C65.4146 11.4139 65.9748 9.83455 66.5585 8.95004C67.8954 6.92782 69.4172 5.97485 71.9252 6.13511C75.0054 6.33207 76.4966 8.74576 76.7094 11.5925C76.7143 11.6536 76.7159 11.7148 76.7159 11.776V20.715C76.7143 21.9897 75.6806 23.0223 74.4059 23.0223H73.6745C72.3997 23.0223 71.3661 21.9885 71.3661 20.7138V13.1877C71.3661 13.118 71.3661 13.0483 71.3585 12.9797C71.0235 9.43936 66.2683 9.7758 65.9295 13.233C65.9219 13.3027 65.9208 13.3749 65.9208 13.4446V20.715C65.9208 21.9897 64.8883 23.0235 63.6135 23.0235H62.8821C61.6074 23.0235 60.5737 21.9897 60.5737 20.715V2.30846C60.5737 1.03373 61.6074 0 62.8821 0H63.6146H63.6163Z" fill="white"/>
<path d="M34.5625 6.14748C36.8685 6.02394 39.0057 6.40194 40.9141 7.73416C42.0591 8.53303 43.6862 10.2482 43.4366 11.7688C43.1382 13.5818 39.2638 12.8514 39.9807 15.2823C40.3758 16.6242 43.2213 16.2585 43.4428 17.8966C43.6666 19.5493 41.8341 21.3489 40.5507 22.1465C37.3591 24.1344 32.2797 23.9252 29.3644 21.4968C28.3931 20.687 26.9838 18.9755 27.4597 17.625C27.9625 16.1998 30.7615 16.5778 30.9058 15.0254C31.0612 13.3592 29.3999 13.4387 28.3381 12.8526C26.2975 11.7284 27.9172 9.39916 29.1234 8.31528C30.5658 7.01852 32.6283 6.25025 34.5612 6.14628L34.5625 6.14748ZM35.1362 10.4084C32.4265 10.6115 31.975 13.813 32.2821 15.9759C32.5415 17.7999 33.5434 19.3046 35.5742 19.2092C38.1995 19.0857 38.69 16.3625 38.5824 14.2301C38.4784 12.1553 37.5034 10.2322 35.1362 10.4097V10.4084Z" fill="white"/>
<path d="M58.6112 14.7021C59.7354 15.8643 59.9017 17.5782 59.4795 19.0927C58.1634 23.81 50.6814 24.3898 47.0028 22.4667C46.5807 22.2465 46.1978 21.9884 45.8528 21.696C44.3774 20.4445 44.994 18.0345 46.878 17.5929C47.8065 17.3751 48.7987 17.6932 49.3736 18.4529C49.7101 18.8982 50.1823 19.226 50.7915 19.4132C51.9157 19.7582 54.4542 19.6983 54.6081 18.1372C54.7504 16.6864 52.8455 17.3885 52.4014 15.9927C51.9573 14.5968 52.9323 13.4958 54.2548 13.3001C55.801 13.0701 57.5214 13.5742 58.6123 14.7021H58.6112Z" fill="white"/>
<path d="M57.943 8.02528C57.9517 8.03384 57.9599 8.0412 57.9686 8.04977C59.1959 9.24006 58.5965 11.3247 56.9328 11.7211L56.4834 11.8275C55.6483 12.0269 54.7575 11.7296 54.2498 11.0372C53.9501 10.6286 53.5267 10.3215 52.9885 10.16C51.9401 9.84442 49.5741 9.94108 49.3943 11.3711C49.2035 12.8857 51.0421 12.1933 51.5621 13.4619C52.1334 14.8552 51.1461 16.0847 49.7539 16.278C47.3978 16.6059 44.6048 14.9764 44.3663 12.4771C44.0751 9.43091 46.1132 7.22891 48.9331 6.48879C51.644 5.77675 55.8146 5.98964 57.9441 8.02408L57.943 8.02528Z" fill="white"/>
<path d="M80.2516 5.31669C81.7194 5.31669 82.9096 4.12651 82.9096 2.65834C82.9096 1.19018 81.7194 0 80.2516 0C78.7832 0 77.593 1.19018 77.593 2.65834C77.593 4.12651 78.7832 5.31669 80.2516 5.31669Z" fill="white"/>
<path d="M80.3394 15.3345C79.9761 14.1013 80.7932 13.6818 81.7265 13.3306C82.4388 13.0627 82.9096 12.3813 82.9096 11.6204V9.62755C82.9096 8.15951 81.7194 6.96922 80.2516 6.96922C78.7832 6.96922 77.593 8.15951 77.593 9.62755V20.7515C77.593 22.2195 78.7832 23.4098 80.2516 23.4098C81.7194 23.4098 82.9096 22.2195 82.9096 20.7515V18.0956C82.9096 17.3261 82.4263 16.641 81.7036 16.3768C81.0708 16.1456 80.5008 15.8826 80.3394 15.3333V15.3345Z" fill="white"/>
</g>
</g>
</g>
<defs>
<clipPath id="clip0_1_231">
<rect width="82.91" height="24" fill="white"/>
</clipPath>
<clipPath id="clip1_1_231">
<rect width="82.91" height="24" fill="white"/>
</clipPath>
<clipPath id="clip2_1_231">
<rect width="82.9091" height="24" fill="white" transform="translate(0.000427246)"/>
</clipPath>
</defs>
</svg>
